<svg width="16" height="16" viewBox="0 0 16 16" fill="none" xmlns="http://www.w3.org/2000/svg">
<path fill-rule="evenodd" clip-rule="evenodd" d="M7 14.9545C7 15.2189 7.10536 15.4725 7.29289 15.6594C7.48043 15.8464 7.73478 15.9514 8 15.9514C8.26522 15.9514 8.51957 15.8464 8.70711 15.6594C8.89464 15.4725 9 15.2189 9 14.9545V8.97268H15C15.2652 8.97268 15.5196 8.86765 15.7071 8.68068C15.8946 8.49371 16 8.24013 16 7.97572C16 7.71131 15.8946 7.45773 15.7071 7.27076C15.5196 7.08379 15.2652 6.97875 15 6.97875H9V0.996965C9 0.732553 8.89464 0.478971 8.70711 0.292004C8.51957 0.105037 8.26522 0 8 0C7.73478 0 7.48043 0.105037 7.29289 0.292004C7.10536 0.478971 7 0.732553 7 0.996965V6.97875H1C0.734784 6.97875 0.48043 7.08379 0.292893 7.27076C0.105357 7.45773 0 7.71131 0 7.97572C0 8.24013 0.105357 8.49371 0.292893 8.68068C0.48043 8.86765 0.734784 8.97268 1 8.97268H7V14.9545Z" fill="black"/>
</svg>
