<svg width="18" height="19" viewBox="0 0 18 19" fill="none" xmlns="http://www.w3.org/2000/svg">
<path d="M8.75003 11.7808C10.1559 11.7808 11.2956 10.6411 11.2956 9.23523C11.2956 7.82936 10.1559 6.68967 8.75003 6.68967C7.34416 6.68967 6.20447 7.82936 6.20447 9.23523C6.20447 10.6411 7.34416 11.7808 8.75003 11.7808Z" stroke="#373737" stroke-width="1.5"/>
<path d="M1.67441 8.08055C2.07538 8.33248 2.33338 8.76166 2.33338 9.23513C2.33337 9.70869 2.07537 10.1379 1.67441 10.3898C1.40156 10.5612 1.22577 10.6982 1.10069 10.8612C0.826698 11.2184 0.705775 11.6696 0.764527 12.1159C0.808582 12.4505 1.00626 12.7929 1.40162 13.4777C1.79699 14.1625 1.99467 14.5049 2.26247 14.7104C2.61955 14.9844 3.07084 15.1053 3.51708 15.0466C3.72075 15.0198 3.92729 14.936 4.21212 14.7855C4.63085 14.5642 5.1316 14.5554 5.54175 14.7922C5.95185 15.029 6.19453 15.467 6.21222 15.9402C6.22427 16.2622 6.25504 16.483 6.33366 16.6728C6.5059 17.0886 6.83628 17.419 7.25207 17.5913C7.56399 17.7204 7.95931 17.7204 8.75005 17.7204C9.54079 17.7204 9.93611 17.7204 10.248 17.5913C10.6638 17.419 10.9942 17.0886 11.1665 16.6728C11.245 16.483 11.2758 16.2622 11.2879 15.9403C11.3055 15.467 11.5482 15.029 11.9584 14.7922C12.3685 14.5554 12.8692 14.5643 13.2879 14.7856C13.5728 14.9361 13.7793 15.0198 13.983 15.0467C14.4292 15.1055 14.8805 14.9845 15.2376 14.7105C15.5054 14.505 15.7031 14.1626 16.0985 13.4778C16.2745 13.173 16.4114 12.936 16.5128 12.7372M15.8256 10.3899C15.4247 10.138 15.1667 9.70878 15.1667 9.2353C15.1667 8.76174 15.4247 8.33248 15.8256 8.08055C16.0985 7.90915 16.2742 7.77211 16.3993 7.60911C16.6733 7.25204 16.7942 6.80074 16.7355 6.3545C16.6914 6.01983 16.4937 5.67743 16.0983 4.99265C15.703 4.30786 15.5053 3.96547 15.2375 3.75998C14.8804 3.48598 14.4291 3.36506 13.9829 3.4238C13.7792 3.45062 13.5727 3.53434 13.2879 3.68489C12.8691 3.9062 12.3684 3.91502 11.9583 3.67821C11.5482 3.44143 11.3055 3.00342 11.2879 2.53022C11.2758 2.2082 11.245 1.98744 11.1665 1.79761C10.9942 1.38179 10.6638 1.05142 10.248 0.879179C9.93611 0.75 9.54079 0.75 8.75005 0.75C7.95931 0.75 7.56399 0.75 7.25207 0.879179C6.83628 1.05142 6.5059 1.38179 6.33366 1.79761C6.25504 1.98742 6.22427 2.20817 6.21222 2.53015C6.19452 3.00339 5.95184 3.44143 5.54171 3.67821C5.13159 3.915 4.63088 3.90615 4.2122 3.68487C3.92733 3.53431 3.72078 3.45058 3.51709 3.42376C3.07085 3.36502 2.61956 3.48594 2.26248 3.75994C1.99468 3.96543 1.797 4.30783 1.40163 4.99261C1.22562 5.29747 1.08879 5.53447 0.987247 5.73314" stroke="#373737" stroke-width="1.5" stroke-linecap="round"/>
</svg>
